<svg version="1.1"
 width="240" height="280"
 xmlns="http://www.w3.org/2000/svg">

<ellipse cx="105" cy="20" rx="15" ry="20" stroke="red" fill="transparent" stroke-width="1"/>
<circle cx="105" cy="40" r="2"  stroke="red" fill="red" stroke-width="1"/>
<circle cx="82" cy="280" r="2"  stroke="red" fill="red" stroke-width="1"/>
 <line x1="82" y1="280" x2="46" y2="280" stroke="red" stroke-width="1"/>
<circle cx="128" cy="280" r="2"  stroke="red" fill="red" stroke-width="1"/>
 <line x1="128" y1="280" x2="164" y2="280" stroke="red" stroke-width="1"/>
<circle cx="82" cy="212" r="2"  stroke="red" fill="red" stroke-width="1"/>
 <line x1="82" y1="280" x2="82" y2="212" stroke="red" stroke-width="1"/>
<circle cx="128" cy="212" r="2"  stroke="red" fill="red" stroke-width="1"/>
 <line x1="128" y1="280" x2="128" y2="212" stroke="red" stroke-width="1"/>
<circle cx="82" cy="144" r="2"  stroke="red" fill="red" stroke-width="1"/>
 <line x1="82" y1="212" x2="82" y2="144" stroke="red" stroke-width="1"/>
<circle cx="128" cy="144" r="2"  stroke="red" fill="red" stroke-width="1"/>
 <line x1="128" y1="212" x2="128" y2="144" stroke="red" stroke-width="1"/>
<circle cx="105" cy="132" r="2"  stroke="red" fill="red" stroke-width="1"/>
 <line x1="82" y1="144" x2="105" y2="132" stroke="red" stroke-width="1"/>
 <line x1="128" y1="144" x2="105" y2="132" stroke="red" stroke-width="1"/>
 <line x1="105" y1="132" x2="105" y2="40" stroke="red" stroke-width="1"/>
<circle cx="75" cy="64" r="2"  stroke="red" fill="red" stroke-width="1"/>
 <line x1="75" y1="64" x2="105" y2="40" stroke="red" stroke-width="1"/>
<circle cx="135" cy="64" r="2"  stroke="red" fill="red" stroke-width="1"/>
 <line x1="135" y1="64" x2="105" y2="40" stroke="red" stroke-width="1"/>
<circle cx="75" cy="108" r="2"  stroke="red" fill="red" stroke-width="1"/>
 <line x1="75" y1="64" x2="75" y2="108" stroke="red" stroke-width="1"/>
<circle cx="135" cy="108" r="2"  stroke="red" fill="red" stroke-width="1"/>
 <line x1="135" y1="64" x2="135" y2="108" stroke="red" stroke-width="1"/>
<circle cx="75" cy="148" r="2"  stroke="red" fill="red" stroke-width="1"/>
 <line x1="75" y1="108" x2="75" y2="148" stroke="red" stroke-width="1"/>
<circle cx="135" cy="148" r="2"  stroke="red" fill="red" stroke-width="1"/>
 <line x1="135" y1="108" x2="135" y2="148" stroke="red" stroke-width="1"/>
 <line x1="75" y1="148" x2="73" y2="180" stroke="red" stroke-width="1"/>
 <line x1="135" y1="148" x2="137" y2="180" stroke="red" stroke-width="1"/>
</svg>
